# xmcd CD database file generated by OrangeCD 5.2
#
# Track frame offsets:
#	150
#	18510
#	43070
#	62482
#	80085
#	99007
#	118972
#	136585
#	156837
#	177830
#	194872
#	213377
#	234160
#	252675
#	273015
#	289800
#
# Disc length: 4360 seconds
#
# Revision: 0
# Processed by: cddbd v1.5.1PL0 Copyright (c) Steve Scherf et al.
# Submitted via: OrangeCD 5.2
#
DISCID=e3110610
DTITLE=Various Artist - Motown Year By Year - 1987
DYEAR=1995
DGENRE=Motown Compilation
TTITLE0=Smokey Robinson - Just To See Her
TTITLE1=Stevie Wonder - Skeletons
TTITLE2=Stacy Lattisaw - Jump Into My Life
TTITLE3=General Kane - Girl Pulled The Dog
TTITLE4=Garry Glenn - Feels Good To Feel Good
TTITLE5=The Temptations - I Wonder Who She's Seeing Now
TTITLE6=Bruce Willis - Respect Yourself
TTITLE7=Wilson Pickett - Don't Turn Away
TTITLE8=Chico Debarge - Rainy Night
TTITLE9=Carrie McDowell - When A Woman Loves A Man
TTITLE10=Giorgio - Tina Cherry
TTITLE11=Sunny Debarge - Svve The Best For Me(Best Of Your Lovin')
TTITLE12=Smokey Robinson - One Heartbeat
TTITLE13=Lionel Richie - Se La
TTITLE14=Papa Was A Rolling Stone 
TTITLE15=Lionel Richie - Sa La 
EXTD=
EXTT0=
EXTT1=
EXTT2=
EXTT3=
EXTT4=
EXTT5=
EXTT6=
EXTT7=
EXTT8=
EXTT9=
EXTT10=
EXTT11=
EXTT12=
EXTT13=
EXTT14=
EXTT15=
PLAYORDER=
